<?xml version="1.0" encoding="utf-8"?>
<!-- Generator: Adobe Illustrator 18.1.1, SVG Export Plug-In . SVG Version: 6.00 Build 0)  -->
<svg version="1.1" id="Layer_1" xmlns="http://www.w3.org/2000/svg" xmlns:xlink="http://www.w3.org/1999/xlink" x="0px" y="0px"
	 viewBox="0 0 364.6 390.1" enable-background="new 0 0 364.6 390.1" xml:space="preserve">
<line fill="none" stroke="#474C55" stroke-width="2" stroke-miterlimit="10" x1="131.5" y1="354.2" x2="152.1" y2="354.2"/>
<line fill="none" stroke="#474C55" stroke-width="2" stroke-miterlimit="10" x1="211.2" y1="354.2" x2="231.8" y2="354.2"/>
<text transform="matrix(1 0 0 1 110.7542 330.543)"><tspan x="0" y="0" fill="#474C55" font-family="'Futura-Medium'" font-size="56" letter-spacing="3">L</tspan><tspan x="28.4" y="0" fill="#474C55" font-family="'Futura-Medium'" font-size="56" letter-spacing="2">O</tspan><tspan x="81.4" y="0" fill="#474C55" font-family="'Futura-Medium'" font-size="56">W</tspan></text>
<polygon fill="none" stroke="#474C55" stroke-width="7.013" stroke-miterlimit="10" points="266.3,19.5 180.9,19.5 96.1,19.5 
	30.1,104.8 180.9,225.9 332.4,104.8 "/>
<line fill="none" stroke="#474C55" stroke-width="3.5065" stroke-miterlimit="10" x1="75.2" y1="45.3" x2="222.2" y2="192.2"/>
<line fill="none" stroke="#474C55" stroke-width="3.5065" stroke-miterlimit="10" x1="285.9" y1="46.4" x2="139.2" y2="193.1"/>
<line fill="none" stroke="#474C55" stroke-width="3.5065" stroke-miterlimit="10" x1="141.1" y1="19.5" x2="273.1" y2="151.4"/>
<line fill="none" stroke="#474C55" stroke-width="3.5065" stroke-miterlimit="10" x1="181.2" y1="150.3" x2="181.2" y2="248.8"/>
<line fill="none" stroke="#474C55" stroke-width="3.5065" stroke-miterlimit="10" x1="181.2" y1="0" x2="181.2" y2="58.6"/>
<line fill="none" stroke="#474C55" stroke-width="3.5065" stroke-miterlimit="10" x1="221.2" y1="19.5" x2="88.3" y2="152.4"/>
<line fill="none" stroke="#474C55" stroke-width="3.5065" stroke-miterlimit="10" x1="227.4" y1="104.8" x2="364.6" y2="104.8"/>
<line fill="none" stroke="#474C55" stroke-width="3.5065" stroke-miterlimit="10" x1="0" y1="104.8" x2="136.6" y2="104.8"/>
<g>
	<text transform="matrix(1 0 0 1 153.9802 364.5234)" fill="#474C55" font-family="'Futura-Medium'" font-size="26">NYC</text>
</g>
</svg>
